<svg width="312" height="218" viewBox="0 0 312 218" fill="none" xmlns="http://www.w3.org/2000/svg">
<path fill-rule="evenodd" clip-rule="evenodd" d="M8 1.21109C8 2.81259 5.7805 4.96344 2.586 6.45847L0 7.66858V62.3159V116.963H3.25C5.1145 116.963 6.5 116.747 6.5 116.456C6.5 116.177 7.20051 115.523 8.05701 115.002C10.348 113.609 15.4215 113.897 19.22 115.636L22.121 116.963H156.211C232.314 116.963 290.506 116.774 290.775 116.525C292.016 115.381 296.93 114.096 299.795 114.168C302.759 114.242 305.5 115.35 305.5 116.475C305.5 116.743 306.963 116.963 308.75 116.963H312V62.3159V7.66858L309.423 6.46146C306.03 4.87346 304 2.94056 304 1.29907V0H156H8V1.21109ZM304.806 11.6123C301.536 7.37866 297.207 3.87878 293.933 2.82211C291.593 2.06635 280.338 2.00187 155.818 2.03036C143.035 2.03326 131.427 2.03315 120.884 2.03304H120.882C21.7575 2.03206 16.7266 2.03201 14.102 4.54505C13.9617 4.67942 13.8283 4.82097 13.6877 4.97008C13.4081 5.26665 13.1003 5.59315 12.654 5.95261C11.0705 7.22771 8.6135 9.77441 7.194 11.6123L4.61301 14.9538L4.35449 48.0889C4.11299 79.0617 4.02401 81.6813 2.99451 88.2223C2.25351 92.9283 1.8135 98.4531 1.651 105.092L1.40948 114.964H3.42551C4.53401 114.964 5.59751 114.711 5.78851 114.402C5.97951 114.093 7.56149 113.194 9.30399 112.404C12.246 111.07 12.589 111.018 14.111 111.666C15.0125 112.05 17.3305 112.95 19.2625 113.664L22.775 114.964H156H289.225L292.738 113.664C294.67 112.95 296.988 112.05 297.889 111.666C299.411 111.018 299.754 111.07 302.696 112.404C304.439 113.194 306.021 114.093 306.212 114.402C306.403 114.711 307.445 114.964 308.53 114.964H310.5L310.495 107.091C310.491 101.289 310.148 96.8531 309.193 90.2216C307.928 81.4459 307.889 80.4088 307.642 48.0889L307.387 14.9538L304.806 11.6123ZM302.737 3.4729C303.631 5.20236 306.053 7.15274 308.652 8.2384L310.5 9.01065V12.83V16.6497L308.484 13.5317C306.433 10.3587 301.466 5.03642 298.75 3.10052L297.25 2.03085L299.612 2.01535C301.729 2.00085 302.054 2.15232 302.737 3.4729ZM309.54 86.2229C310.201 90.872 310.259 88.7646 310.379 56.0909C310.504 21.8051 310.483 20.9154 309.509 19.1025L308.51 17.2446L308.67 49.2345C308.791 73.4799 309.001 82.4346 309.54 86.2229ZM2.75201 82.4481C2.32101 86.6953 1.86301 90.2757 1.73401 90.4041C1.60551 90.5331 1.5 74.9759 1.5 55.8329C1.5 23.717 1.5675 20.8854 2.375 19.193C3.221 17.4185 3.25451 18.3032 3.39301 46.0425C3.50901 69.2738 3.38701 76.1945 2.75201 82.4481ZM3.9595 12.903C6.2845 9.42705 10.7435 4.7495 13.5 2.89359L14.75 2.05182L12.388 2.02536C10.287 2.00237 9.94451 2.1563 9.29251 3.4169C8.43701 5.06988 5.743 7.2382 3.25 8.27988L1.5 9.01065V12.7945V16.5788L3.9595 12.903Z" fill="white"/>
<path fill-rule="evenodd" clip-rule="evenodd" d="M0 166.368V209.774L1.97198 210.424C4.69698 211.324 7.40701 213.684 7.90051 215.589L8.31351 217.182H156H303.687L304.097 215.599C304.592 213.691 306.616 211.896 309.708 210.625L311.997 209.684L311.998 166.323L312 122.961H308.775C306.579 122.961 305.422 123.179 305.15 123.644C303.699 126.119 297.452 126.427 292.711 124.257L289.879 122.961H156H22.121L19.289 124.257C14.567 126.419 7.58751 126.073 6.65051 123.632C6.47201 123.168 5.41 122.961 3.1965 122.961H0V166.368ZM9.54849 127.496C8.06249 126.943 6.36049 126.034 5.76599 125.476C5.14699 124.894 4.00549 124.461 3.09299 124.461H1.5L1.50549 132.583C1.50949 138.575 1.845 143.066 2.785 149.703C3.9355 157.833 4.08651 160.796 4.35101 180.437L4.64401 202.174L6.58499 204.801C10.5475 210.163 15.2195 213.772 19.5965 214.853C22.9715 215.686 289.029 215.686 292.404 214.853C296.767 213.775 301.404 210.2 305.428 204.809L307.386 202.186L307.664 180.443C307.916 160.743 308.061 157.855 309.215 149.703C310.155 143.066 310.491 138.575 310.495 132.583L310.5 124.461H308.907C307.995 124.461 306.853 124.894 306.234 125.476C305.64 126.034 303.938 126.943 302.452 127.496C299.387 128.637 298.451 128.491 292.25 125.913L288.75 124.458H156H23.25L19.75 125.913C13.549 128.491 12.613 128.637 9.54849 127.496ZM2.72751 157.202C3.34401 163.292 3.50299 169.308 3.39349 182.443C3.25399 199.183 3.2245 199.64 2.375 198.088C1.576 196.627 1.5 194.409 1.5 172.637C1.5 159.519 1.59401 148.881 1.70901 148.996C1.82401 149.111 2.28251 152.804 2.72751 157.202ZM14.026 214.433C12.9005 214.433 7.40351 209.198 5.17651 206.005C3.84201 204.092 2.47551 202.113 2.14001 201.607C1.63651 200.847 1.54951 201.34 1.64001 204.43L1.75 208.174L4.0155 209.247C6.1905 210.277 10 213.898 10 214.934C10 215.208 11.0125 215.432 12.25 215.432C13.4875 215.432 14.5 215.207 14.5 214.933C14.5 214.658 14.2865 214.433 14.026 214.433ZM309.63 198.078L308.75 199.687L308.585 197.438C308.17 191.792 308.915 158.368 309.56 153.702C310.216 148.952 310.257 149.893 310.38 172.586C310.5 194.586 310.441 196.596 309.63 198.078ZM307.905 209.318C309.09 208.792 310.17 208.073 310.306 207.721C310.441 207.368 310.484 205.682 310.401 203.973L310.25 200.867L308.033 204.276C305.674 207.901 300.116 213.67 298.481 214.189C296.736 214.743 297.44 215.432 299.75 215.432C300.988 215.432 302 215.208 302 214.934C302 213.888 305.844 210.232 307.905 209.318Z" fill="white"/>
</svg>
