<svg width="340" height="51" viewBox="0 0 340 51" fill="none" xmlns="http://www.w3.org/2000/svg">
<path fill-rule="evenodd" clip-rule="evenodd" d="M11.0355 2.14636C2.43353 9.01471 -1.70797 20.986 0.658031 32.1475C1.87653 37.8977 4.51053 42.6391 8.95253 47.0797L12.858 50.984H30.0935H47.3285L49.859 48.9846L51.973 47V41.1132C51.2887 41.7876 50.5226 42.0092 49.1685 42.2433C45.406 42.8946 37.171 45.0339 33.7085 46.26C30.596 47.3622 29.4565 47.4851 22.3735 47.4851H14.4985L11.562 44.5496C1.14053 34.1313 0.929533 17.852 11.079 7.24683L14.187 3.99878H22.459C30.263 3.99878 30.973 4.08074 35.011 5.44531C37.365 6.24056 42.057 7.48517 45.437 8.21094L45.5854 8.24278C49.2609 9.03172 50.8758 9.37833 51.973 10.3249L52.33 4.49866L49.758 2.24927L47.1855 0L30.427 0.0219727L13.6685 0.0445557L11.0355 2.14636ZM49.296 7.28662C49.4665 7.11617 48.8325 6.31605 47.887 5.5083C46.3355 4.18222 45.8165 4.03728 42.5435 4.01929C40.5495 4.00779 38.9185 4.10467 38.9185 4.23413C38.9185 4.65 48.975 7.60802 49.296 7.28662ZM42.0925 47.4851C45.7675 47.4851 46.0135 47.4116 47.799 45.7756C48.8255 44.8354 49.551 43.9523 49.412 43.8129C49.148 43.5494 39.0415 46.6959 38.539 47.1982C38.381 47.3562 39.98 47.4851 42.0925 47.4851Z" fill="white"/>
<path fill-rule="evenodd" clip-rule="evenodd" d="M52.416 46.4866H191.597H330.779L332.667 43.746C334.607 40.9304 338.061 37.4894 338.947 37.4894C339.264 37.4894 339.445 33.0674 339.445 25.2928V13.0961L337.703 12.0685C336.745 11.5032 334.805 9.45678 333.392 7.52039L330.822 4H191.589H52L54.9022 7.19459C54.4388 6.58443 55.2176 6.50518 60.5095 6.53967C66.1675 6.57716 66.5675 6.63904 65.1955 7.26685C63.0555 8.24654 55.763 8.23359 54.9455 7.2489L57.21 10.3729C56.5865 8.90439 59.249 9.23328 60.2415 10.7478C60.692 11.4351 61.7065 13.8528 62.496 16.1211C64.9205 23.0829 64.3185 31.3799 60.8925 38.2383C59.958 40.1087 59.53 40.4885 58.357 40.4885C57.7867 40.4885 57.4105 40.4866 57.21 40.3898L55.7016 42.2161C56.2008 41.9597 57.2241 41.9675 59.6465 42.1116C61.8735 42.244 64.3705 42.6643 65.1955 43.0452C66.5905 43.689 66.298 43.7474 61.004 43.8794C57.874 43.9574 55.225 43.9334 55.1175 43.8259L52.416 46.4866ZM336.13 19.1787C334.736 16.2416 329.753 12.2383 323.773 9.25024L318.266 6.49915L193.981 6.52271L69.6955 6.54565L67.4455 7.70422C66.208 8.34152 64.352 9.01581 63.3205 9.20325C62.2895 9.39019 61.4455 9.63925 61.4455 9.75671C61.4455 9.87368 62.0115 11.2486 62.703 12.8116C64.3925 16.6314 65.4455 21.385 65.4455 25.1943C65.4455 28.7587 64.0065 34.9307 62.4765 37.9287C61.1195 40.5874 61.172 40.9883 62.875 40.9883C63.6615 40.9883 65.63 41.6602 67.25 42.4814L70.1955 43.975L193.958 43.981L317.722 43.9874L323.251 41.2678C329.598 38.1468 333.876 34.8903 335.686 31.8027C336.772 29.9488 336.945 29.0531 336.945 25.2748C336.945 22.2627 336.691 20.3598 336.13 19.1787ZM335.031 13.2046C333.979 12.3039 332.347 10.4325 331.406 9.0459L329.695 6.52515H325.695L321.695 6.52563L325.196 8.38647C329.747 10.8062 331.674 12.1514 334.57 14.9301C336.759 17.0299 336.945 17.1154 336.945 16.0253C336.945 15.2725 336.249 14.2468 335.031 13.2046ZM334.07 38.2068C335.652 36.5283 336.945 34.7809 336.945 34.323C336.945 33.1274 336.372 33.2998 334.945 34.9258C333.073 37.0596 329.199 39.8416 325.232 41.901L321.695 43.7374L325.445 43.8944C329.057 44.0454 329.232 43.9999 330.195 42.6548C330.745 41.8865 332.489 39.8853 334.07 38.2068Z" fill="white"/>
<path d="M54.419 13.761C56.3365 17.6873 56.9195 20.3558 56.9275 25.2433C56.9345 29.9208 56.181 33.0823 54.061 37.2695C53.184 39.0013 52.6262 39.9975 52 40.6146V46.8153L52.416 46.4866L55.1175 43.8259C55.01 43.7185 55.074 43.2346 55.26 42.7507C55.353 42.5082 55.4717 42.3341 55.7016 42.2161L57.21 40.3898C56.8224 40.2027 57.0908 39.6613 57.882 38.0942C59.794 34.3089 60.608 30.4097 60.617 24.9934C60.625 19.88 59.8695 16.637 57.21 10.3729L54.9455 7.2489C54.9301 7.23035 54.9156 7.21225 54.9022 7.19459L52 4V9.82622C52.8598 10.568 53.4019 11.6781 54.3687 13.6581L54.419 13.761Z" fill="white"/>
<path fill-rule="evenodd" clip-rule="evenodd" d="M54.9455 7.2489C54.9301 7.23035 54.9156 7.21225 54.9022 7.19459L54.9455 7.2489ZM55.26 42.7507C55.353 42.5082 55.4717 42.3341 55.7016 42.2161L55.26 42.7507Z" fill="white"/>
</svg>
