<svg width="312" height="459" viewBox="0 0 312 459" fill="none" xmlns="http://www.w3.org/2000/svg">
<path fill-rule="evenodd" clip-rule="evenodd" d="M8 1.21109C8 2.81259 5.7805 4.96344 2.586 6.45847L0 7.66858V62.3159V116.963H3.25C5.1145 116.963 6.5 116.747 6.5 116.456C6.5 116.177 7.20051 115.523 8.05701 115.002C10.348 113.609 15.4215 113.897 19.22 115.636L22.121 116.963H156.211C232.314 116.963 290.506 116.774 290.775 116.525C292.016 115.381 296.93 114.096 299.795 114.168C302.759 114.242 305.5 115.35 305.5 116.475C305.5 116.743 306.963 116.963 308.75 116.963H312V62.3159V7.66858L309.423 6.46146C306.03 4.87346 304 2.94056 304 1.29907V0H156H8V1.21109ZM304.806 11.6123C301.536 7.37866 297.207 3.87878 293.933 2.82211C291.593 2.06635 280.338 2.00187 155.818 2.03036C143.035 2.03326 131.427 2.03315 120.884 2.03304H120.882C21.7575 2.03206 16.7266 2.03201 14.102 4.54505C13.9617 4.67942 13.8283 4.82097 13.6877 4.97008C13.4081 5.26665 13.1003 5.59315 12.654 5.95261C11.0705 7.22771 8.6135 9.77441 7.194 11.6123L4.61301 14.9538L4.35449 48.0889C4.11299 79.0617 4.02401 81.6813 2.99451 88.2223C2.25351 92.9283 1.8135 98.4531 1.651 105.092L1.40948 114.964H3.42551C4.53401 114.964 5.59751 114.711 5.78851 114.402C5.97951 114.093 7.56149 113.194 9.30399 112.404C12.246 111.07 12.589 111.018 14.111 111.666C15.0125 112.05 17.3305 112.95 19.2625 113.664L22.775 114.964H156H289.225L292.738 113.664C294.67 112.95 296.988 112.05 297.889 111.666C299.411 111.018 299.754 111.07 302.696 112.404C304.439 113.194 306.021 114.093 306.212 114.402C306.403 114.711 307.445 114.964 308.53 114.964H310.5L310.495 107.091C310.491 101.289 310.148 96.8531 309.193 90.2216C307.928 81.4459 307.889 80.4088 307.642 48.0889L307.387 14.9538L304.806 11.6123ZM302.737 3.4729C303.631 5.20236 306.053 7.15274 308.652 8.2384L310.5 9.01065V12.83V16.6497L308.484 13.5317C306.433 10.3587 301.466 5.03642 298.75 3.10052L297.25 2.03085L299.612 2.01535C301.729 2.00085 302.054 2.15232 302.737 3.4729ZM309.54 86.2229C310.201 90.872 310.259 88.7646 310.379 56.0909C310.504 21.8051 310.483 20.9154 309.509 19.1025L308.51 17.2446L308.67 49.2345C308.791 73.4799 309.001 82.4346 309.54 86.2229ZM2.75201 82.4481C2.32101 86.6953 1.86301 90.2757 1.73401 90.4041C1.60551 90.5331 1.5 74.9759 1.5 55.8329C1.5 23.717 1.5675 20.8854 2.375 19.193C3.221 17.4185 3.25451 18.3032 3.39301 46.0425C3.50901 69.2738 3.38701 76.1945 2.75201 82.4481ZM3.9595 12.903C6.2845 9.42705 10.7435 4.7495 13.5 2.89359L14.75 2.05182L12.388 2.02536C10.287 2.00237 9.94451 2.1563 9.29251 3.4169C8.43701 5.06988 5.743 7.2382 3.25 8.27988L1.5 9.01065V12.7945V16.5788L3.9595 12.903Z" fill="white"/>
<path fill-rule="evenodd" clip-rule="evenodd" d="M0 407.406V450.813L1.97198 451.463C4.69698 452.362 7.40701 454.723 7.90051 456.627L8.31351 458.22H156H303.687L304.097 456.637C304.592 454.729 306.616 452.935 309.708 451.663L311.997 450.723L311.998 407.361L312 364H308.775C306.579 364 305.422 364.218 305.15 364.682C303.699 367.158 297.452 367.466 292.711 365.296L289.879 364H156H22.121L19.289 365.296C14.567 367.457 7.58751 367.112 6.65051 364.671C6.47201 364.206 5.41 364 3.1965 364H0V407.406ZM9.54849 368.535C8.06249 367.981 6.36049 367.073 5.76599 366.514C5.14699 365.933 4.00549 365.5 3.09299 365.5H1.5L1.50549 373.622C1.50949 379.614 1.845 384.105 2.785 390.742C3.9355 398.872 4.08651 401.835 4.35101 421.475L4.64401 443.213L6.58499 445.84C10.5475 451.202 15.2195 454.811 19.5965 455.892C22.9715 456.725 289.029 456.725 292.404 455.892C296.767 454.814 301.404 451.239 305.428 445.847L307.386 443.225L307.664 421.482C307.916 401.781 308.061 398.894 309.215 390.742C310.155 384.105 310.491 379.614 310.495 373.622L310.5 365.5H308.907C307.995 365.5 306.853 365.933 306.234 366.514C305.64 367.073 303.938 367.981 302.452 368.535C299.387 369.675 298.451 369.53 292.25 366.952L288.75 365.497H156H23.25L19.75 366.952C13.549 369.53 12.613 369.675 9.54849 368.535ZM2.72751 398.24C3.34401 404.331 3.50299 410.347 3.39349 423.481C3.25399 440.222 3.2245 440.679 2.375 439.126C1.576 437.666 1.5 435.448 1.5 413.676C1.5 400.558 1.59401 389.919 1.70901 390.034C1.82401 390.149 2.28251 393.842 2.72751 398.24ZM14.026 455.471C12.9005 455.471 7.40351 450.236 5.17651 447.044C3.84201 445.131 2.47551 443.152 2.14001 442.646C1.63651 441.886 1.54951 442.378 1.64001 445.469L1.75 449.212L4.0155 450.285C6.1905 451.316 10 454.936 10 455.973C10 456.247 11.0125 456.471 12.25 456.471C13.4875 456.471 14.5 456.246 14.5 455.971C14.5 455.696 14.2865 455.471 14.026 455.471ZM309.63 439.117L308.75 440.726L308.585 438.477C308.17 432.83 308.915 399.406 309.56 394.74C310.216 389.991 310.257 390.932 310.38 413.625C310.5 435.625 310.441 437.635 309.63 439.117ZM307.905 450.356C309.09 449.831 310.17 449.112 310.306 448.759C310.441 448.407 310.484 446.72 310.401 445.012L310.25 441.906L308.033 445.315C305.674 448.939 300.116 454.709 298.481 455.227C296.736 455.781 297.44 456.471 299.75 456.471C300.988 456.471 302 456.247 302 455.973C302 454.927 305.844 451.271 307.905 450.356Z" fill="white"/>
<path fill-rule="evenodd" clip-rule="evenodd" d="M310.108 206.783C308.985 197.437 308.391 188.01 308.33 178.567V182.524C308.427 173.062 309.059 163.62 310.222 154.262L310.108 206.783ZM310.108 234.726H306.685C305.972 233.628 305.078 232.718 304.059 232.053C303.041 231.387 301.919 230.982 300.764 230.861C300.616 230.534 300.398 230.26 300.131 230.069C299.865 229.879 299.561 229.778 299.251 229.778C298.941 229.778 298.636 229.879 298.37 230.069C298.104 230.26 297.885 230.534 297.737 230.861C294.67 231.443 291.727 232.74 289.074 234.681H22.9262C20.2733 232.74 17.3302 231.443 14.2626 230.861C14.1149 230.534 13.8963 230.26 13.63 230.069C13.3636 229.879 13.0594 229.778 12.7494 229.778C12.4394 229.778 12.1351 229.879 11.8688 230.069C11.6024 230.26 11.3838 230.534 11.2361 230.861C10.0818 230.985 8.96078 231.391 7.94242 232.056C6.92405 232.721 6.02995 233.63 5.31539 234.726H1.8916V214.264C3.60307 202.472 4.53288 190.536 4.67224 178.567V182.524C4.53865 170.525 3.60881 158.558 1.8916 146.736V126.274H5.31539C6.02819 127.374 6.92151 128.288 7.93996 128.956C8.95842 129.625 10.0803 130.035 11.2361 130.162C11.3793 130.496 11.5963 130.776 11.8632 130.971C12.1301 131.167 12.4367 131.27 12.7494 131.27C13.062 131.27 13.3686 131.167 13.6355 130.971C13.9024 130.776 14.1194 130.496 14.2626 130.162C17.3365 129.569 20.2816 128.248 22.9262 126.274H289.074C291.723 128.224 294.668 129.522 297.737 130.093C297.881 130.427 298.098 130.708 298.365 130.903C298.631 131.099 298.938 131.202 299.251 131.202C299.563 131.202 299.87 131.099 300.137 130.903C300.404 130.708 300.621 130.427 300.764 130.093C301.916 129.978 303.036 129.58 304.054 128.923C305.073 128.266 305.968 127.364 306.685 126.274H310.108V146.736C308.393 158.543 307.463 170.494 307.328 182.478V178.567C307.464 190.559 308.394 202.518 310.108 214.332V234.726ZM1.8916 154.217C3.05469 163.575 3.68668 173.017 3.78319 182.478V178.567C3.68497 188.013 3.05298 197.44 1.8916 206.783V154.217ZM305.625 124L305.342 124.591C304.816 125.529 304.121 126.312 303.309 126.883C302.497 127.454 301.588 127.797 300.65 127.888C300.494 127.63 300.289 127.419 300.053 127.274C299.816 127.129 299.554 127.054 299.288 127.054C299.023 127.054 298.761 127.129 298.524 127.274C298.287 127.419 298.083 127.63 297.927 127.888C295.043 127.302 292.285 126.034 289.812 124.159L289.585 124H22.4154L22.1884 124.159C19.7106 126.01 16.9528 127.254 14.0735 127.82C13.9129 127.565 13.7044 127.36 13.4652 127.221C13.226 127.082 12.9628 127.013 12.6971 127.019C12.4314 127.026 12.1708 127.108 11.9366 127.259C11.7024 127.41 11.5012 127.626 11.3496 127.888C10.4148 127.794 9.50905 127.451 8.6978 126.885C7.88654 126.319 7.18999 125.543 6.65842 124.614L6.3936 124H0V237H6.3936L6.65842 236.409C7.18606 235.475 7.88165 234.696 8.69369 234.129C9.50573 233.563 10.4134 233.223 11.3496 233.135C11.5101 233.394 11.7183 233.604 11.9579 233.75C12.1975 233.896 12.4619 233.973 12.7304 233.976C12.9929 233.968 13.2503 233.888 13.4831 233.743C13.7158 233.597 13.9178 233.389 14.0735 233.135C16.9528 233.7 19.7106 234.944 22.1884 236.795L22.4154 236.955H289.585L289.812 236.795C292.289 234.944 295.047 233.7 297.927 233.135C298.086 233.38 298.29 233.58 298.522 233.717C298.755 233.855 299.01 233.928 299.27 233.931C299.538 233.928 299.803 233.851 300.042 233.705C300.282 233.559 300.49 233.348 300.65 233.089C301.587 233.177 302.494 233.517 303.306 234.084C304.118 234.651 304.814 235.43 305.342 236.363L305.606 236.955H312V124H305.625Z" fill="white"/>
<path fill-rule="evenodd" clip-rule="evenodd" d="M310.108 326.783C308.985 317.437 308.391 308.01 308.33 298.567V302.524C308.427 293.062 309.059 283.62 310.222 274.262L310.108 326.783ZM310.108 354.726H306.685C305.972 353.628 305.078 352.718 304.059 352.053C303.041 351.387 301.919 350.982 300.764 350.861C300.616 350.534 300.398 350.26 300.131 350.069C299.865 349.879 299.561 349.778 299.251 349.778C298.941 349.778 298.636 349.879 298.37 350.069C298.104 350.26 297.885 350.534 297.737 350.861C294.67 351.443 291.727 352.74 289.074 354.681H22.9262C20.2733 352.74 17.3302 351.443 14.2626 350.861C14.1149 350.534 13.8963 350.26 13.63 350.069C13.3636 349.879 13.0594 349.778 12.7494 349.778C12.4394 349.778 12.1351 349.879 11.8688 350.069C11.6024 350.26 11.3838 350.534 11.2361 350.861C10.0818 350.985 8.96078 351.391 7.94242 352.056C6.92405 352.721 6.02995 353.63 5.31539 354.726H1.8916V334.264C3.60307 322.472 4.53288 310.536 4.67224 298.567V302.524C4.53865 290.525 3.60881 278.558 1.8916 266.736V246.274H5.31539C6.02819 247.374 6.92151 248.288 7.93996 248.956C8.95842 249.625 10.0803 250.035 11.2361 250.162C11.3793 250.496 11.5963 250.776 11.8632 250.971C12.1301 251.167 12.4367 251.27 12.7494 251.27C13.062 251.27 13.3686 251.167 13.6355 250.971C13.9024 250.776 14.1194 250.496 14.2626 250.162C17.3365 249.569 20.2816 248.248 22.9262 246.274H289.074C291.723 248.224 294.668 249.522 297.737 250.093C297.881 250.427 298.098 250.708 298.365 250.903C298.631 251.099 298.938 251.202 299.251 251.202C299.563 251.202 299.87 251.099 300.137 250.903C300.404 250.708 300.621 250.427 300.764 250.093C301.916 249.978 303.036 249.58 304.054 248.923C305.073 248.266 305.968 247.364 306.685 246.274H310.108V266.736C308.393 278.543 307.463 290.494 307.328 302.478V298.567C307.464 310.559 308.394 322.518 310.108 334.332V354.726ZM1.8916 274.217C3.05469 283.575 3.68668 293.017 3.78319 302.478V298.567C3.68497 308.013 3.05298 317.44 1.8916 326.783V274.217ZM305.625 244L305.342 244.591C304.816 245.529 304.121 246.312 303.309 246.883C302.497 247.454 301.588 247.797 300.65 247.888C300.494 247.63 300.289 247.419 300.053 247.274C299.816 247.129 299.554 247.054 299.288 247.054C299.023 247.054 298.761 247.129 298.524 247.274C298.287 247.419 298.083 247.63 297.927 247.888C295.043 247.302 292.285 246.034 289.812 244.159L289.585 244H22.4154L22.1884 244.159C19.7106 246.01 16.9528 247.254 14.0735 247.82C13.9129 247.565 13.7044 247.36 13.4652 247.221C13.226 247.082 12.9628 247.013 12.6971 247.019C12.4314 247.026 12.1708 247.108 11.9366 247.259C11.7024 247.41 11.5012 247.626 11.3496 247.888C10.4148 247.794 9.50905 247.451 8.6978 246.885C7.88654 246.319 7.18999 245.543 6.65842 244.614L6.3936 244H0V357H6.3936L6.65842 356.409C7.18606 355.475 7.88165 354.696 8.69369 354.129C9.50573 353.563 10.4134 353.223 11.3496 353.135C11.5101 353.394 11.7183 353.604 11.9579 353.75C12.1975 353.896 12.4619 353.973 12.7304 353.976C12.9929 353.968 13.2503 353.888 13.4831 353.743C13.7158 353.597 13.9178 353.389 14.0735 353.135C16.9528 353.7 19.7106 354.944 22.1884 356.795L22.4154 356.955H289.585L289.812 356.795C292.289 354.944 295.047 353.7 297.927 353.135C298.086 353.38 298.29 353.58 298.522 353.717C298.755 353.855 299.01 353.928 299.27 353.931C299.538 353.928 299.803 353.851 300.042 353.705C300.282 353.559 300.49 353.348 300.65 353.089C301.587 353.177 302.494 353.517 303.306 354.084C304.118 354.651 304.814 355.43 305.342 356.363L305.606 356.955H312V244H305.625Z" fill="white"/>
</svg>
